<svg width="62" height="62" viewBox="0 0 62 62" fill="none" xmlns="http://www.w3.org/2000/svg">
<path d="M45.3895 32.716H31.0114C30.628 32.716 30.2446 32.5722 30.0049 32.2846C29.7174 31.997 29.5736 31.6616 29.5736 31.2781V16.9C29.5736 16.0852 30.1966 15.4622 31.0114 15.4622C31.8262 15.4622 32.4492 16.0852 32.4492 16.9V29.8403H45.3895C46.2043 29.8403 46.8274 30.4634 46.8274 31.2781C46.8274 32.0929 46.2043 32.716 45.3895 32.716Z" fill="#F58D2D"/>
<path d="M31.0114 34.633C32.8643 34.633 34.3663 33.131 34.3663 31.2781C34.3663 29.4253 32.8643 27.9232 31.0114 27.9232C29.1585 27.9232 27.6565 29.4253 27.6565 31.2781C27.6565 33.131 29.1585 34.633 31.0114 34.633Z" fill="#F58D2D"/>
<path d="M31.0114 36.0708C28.3754 36.0708 26.2187 33.9141 26.2187 31.2781C26.2187 28.6421 28.3754 26.4854 31.0114 26.4854C33.6474 26.4854 35.8041 28.6421 35.8041 31.2781C35.8041 33.9141 33.6474 36.0708 31.0114 36.0708ZM31.0114 29.361C29.957 29.361 29.0943 30.2237 29.0943 31.2781C29.0943 32.3325 29.957 33.1952 31.0114 33.1952C32.0658 33.1952 32.9285 32.3325 32.9285 31.2781C32.9285 30.2237 32.0658 29.361 31.0114 29.361Z" fill="#1A1A1A"/>
<path d="M31.0114 3.48038C15.6747 3.48038 3.21365 15.9414 3.21365 31.2781C3.21365 46.6148 15.6747 59.0759 31.0114 59.0759C38.4401 59.0759 45.4375 56.2002 50.6136 50.9762L50.6615 50.9283V54.4749C50.6615 55.2896 51.2846 55.9127 52.0994 55.9127C52.9141 55.9127 53.5372 55.2896 53.5372 54.4749V47.6213C53.5372 46.8065 52.9141 46.1835 52.0994 46.1835H45.1978C44.3831 46.1835 43.76 46.8065 43.76 47.6213C43.76 48.4361 44.3831 49.0591 45.1978 49.0591H48.409C43.76 53.6601 37.5774 56.2002 31.0114 56.2002C17.2563 56.2002 6.08928 45.0332 6.08928 31.2781C6.08928 17.523 17.2563 6.35601 31.0114 6.35601C44.7665 6.35601 55.9335 17.523 55.9335 31.2781C55.9335 32.0929 56.5566 32.7159 57.3713 32.7159C58.1861 32.7159 58.8092 32.0929 58.8092 31.2781C58.8092 15.9414 46.3002 3.48038 31.0114 3.48038Z" fill="#444B54"/>
<path d="M56.3169 40.2405C57.1904 40.2405 57.8985 39.5324 57.8985 38.6589C57.8985 37.7855 57.1904 37.0773 56.3169 37.0773C55.4435 37.0773 54.7354 37.7855 54.7354 38.6589C54.7354 39.5324 55.4435 40.2405 56.3169 40.2405Z" fill="#444B54"/>
</svg>
