<svg width="55" height="55" viewBox="0 0 55 55" fill="none" xmlns="http://www.w3.org/2000/svg">
<path d="M54.3984 30.4219C52.6367 28.7031 51.5625 26.2969 51.5625 23.6758V4.72656C51.5625 2.36328 49.6289 0.429688 47.2656 0.429688H23.6328C21.2695 0.429688 19.3359 2.36328 19.3359 4.72656V19.7656H6.01563C2.92188 19.7656 0.429688 22.2578 0.429688 25.3516V48.9844C0.429688 52.0781 2.92188 54.5703 6.01563 54.5703H24.4492C25.1797 54.5703 25.7383 54.0117 25.7383 53.2812C25.7383 52.5508 25.1797 51.9922 24.4492 51.9922H6.01563C4.33984 51.9922 3.00781 50.6602 3.00781 48.9844V25.3516C3.00781 23.6758 4.33984 22.3438 6.01563 22.3438H29.6484C31.3242 22.3438 32.6563 23.6758 32.6563 25.3516V44.3438C32.6563 47.3086 33.8594 50.0156 35.8789 51.9922H34.8477C33.2148 51.9922 31.7109 51.3477 30.5508 50.2305C30.0352 49.7148 29.2188 49.7148 28.7461 50.2305C28.2305 50.7461 28.2305 51.5625 28.7461 52.0352C30.3789 53.668 32.5273 54.5703 34.8477 54.5703H40.3906C41.0352 54.5703 41.5508 54.0977 41.6797 53.4961C41.7656 52.8516 41.4219 52.25 40.8203 52.0781C37.5117 50.9609 35.2773 47.8672 35.2773 44.3438V32.6562H42.1094C44.043 32.6562 45.9336 31.8828 47.3086 30.5078C48.6836 31.8828 50.5313 32.6562 52.5078 32.6562H53.5391C54.6563 32.6562 55.2148 31.2383 54.3984 30.4219Z" fill="#444B54"/>
<path d="M42.6797 15.8984H30.2188C29.4883 15.8984 28.9297 15.3398 28.9297 14.6094C28.9297 13.8789 29.4883 13.3203 30.2188 13.3203H42.6797C43.4102 13.3203 43.9688 13.8789 43.9688 14.6094C43.9688 15.3398 43.4102 15.8984 42.6797 15.8984Z" fill="#F58D2D"/>
<path d="M42.6797 22.3438H38.8125C38.082 22.3438 37.5234 21.7852 37.5234 21.0547C37.5234 20.3242 38.082 19.7656 38.8125 19.7656H42.6797C43.4102 19.7656 43.9688 20.3242 43.9688 21.0547C43.9688 21.7852 43.4102 22.3438 42.6797 22.3438Z" fill="#F58D2D"/>
<path d="M45.9766 54.5703C46.6885 54.5703 47.2656 53.9932 47.2656 53.2812C47.2656 52.5693 46.6885 51.9922 45.9766 51.9922C45.2646 51.9922 44.6875 52.5693 44.6875 53.2812C44.6875 53.9932 45.2646 54.5703 45.9766 54.5703Z" fill="white"/>
<path d="M23.6328 35.2344H11.1719C10.4414 35.2344 9.88281 34.6758 9.88281 33.9453C9.88281 33.2148 10.4414 32.6562 11.1719 32.6562H23.6328C24.3633 32.6562 24.9219 33.2148 24.9219 33.9453C24.9219 34.6758 24.3633 35.2344 23.6328 35.2344Z" fill="#F58D2D"/>
<path d="M18.0469 41.6797H11.1719C10.4414 41.6797 9.88281 41.1211 9.88281 40.3906C9.88281 39.6602 10.4414 39.1016 11.1719 39.1016H18.0469C18.7773 39.1016 19.3359 39.6602 19.3359 40.3906C19.3359 41.1211 18.7773 41.6797 18.0469 41.6797Z" fill="#F58D2D"/>
<path d="M23.5898 41.6797C24.3018 41.6797 24.8789 41.1026 24.8789 40.3906C24.8789 39.6787 24.3018 39.1016 23.5898 39.1016C22.8779 39.1016 22.3008 39.6787 22.3008 40.3906C22.3008 41.1026 22.8779 41.6797 23.5898 41.6797Z" fill="#F58D2D"/>
</svg>
