<svg width="57" height="57" viewBox="0 0 57 57" fill="none" xmlns="http://www.w3.org/2000/svg">
<path d="M14.6953 10.0641C13.8492 8.86172 14.0719 6.99141 15.1406 6.10078C18.2133 3.5625 21.8648 2.22656 25.8281 2.22656C29.6578 2.22656 33.2648 3.47344 36.293 5.92266C37.3617 6.76875 37.5844 8.63906 36.7828 9.88594C36.1148 10.9102 34.9125 11.1773 34.0219 10.4648C31.6617 8.55 28.8562 7.57031 25.8281 7.57031C22.7109 7.57031 19.8609 8.59453 17.4562 10.5984C16.5656 11.3109 15.3633 11.0883 14.6953 10.0641Z" fill="#F58D2D"/>
<path d="M38.6086 8.68359C38.7867 7.21406 38.2523 5.74453 37.1391 4.85391C33.8438 2.27109 29.925 0.890625 25.8281 0.890625C21.5977 0.890625 17.5898 2.31562 14.2945 5.07656C13.1812 5.96719 12.6914 7.48125 12.8695 8.90625C8.95078 13.0031 6.67969 19.3266 6.67969 27.1641C6.67969 27.9211 7.25859 28.5 8.01562 28.5C8.77266 28.5 9.35156 27.9211 9.35156 27.1641C9.35156 20.5734 11.0883 15.1852 14.2055 11.4891C14.6953 11.9344 15.2742 12.2016 15.8977 12.2906C16.0312 12.2906 16.1648 12.3352 16.343 12.3352C17.0555 12.3352 17.768 12.068 18.3469 11.6227C20.4844 9.79688 23.0227 8.90625 25.8281 8.90625C28.5445 8.90625 31.0383 9.75234 33.1758 11.4891C33.8883 12.068 34.7344 12.2906 35.5805 12.157C36.2039 12.068 36.7828 11.7563 37.2727 11.3555C40.4789 14.9625 42.3047 20.4398 42.3047 27.1641C42.3047 27.9211 42.8836 28.5 43.6406 28.5C44.3977 28.5 44.9766 27.9211 44.9766 27.1641C44.9766 19.193 42.6609 12.825 38.6086 8.68359ZM35.6695 9.12891C35.5359 9.35156 35.3578 9.48516 35.1797 9.48516C35.0461 9.48516 34.957 9.48516 34.8234 9.35156C32.2406 7.30313 29.1234 6.23438 25.8281 6.23438C22.4438 6.23438 19.2375 7.39219 16.6102 9.52969C16.4766 9.61875 16.3875 9.66328 16.2539 9.66328C16.0758 9.61875 15.8977 9.52969 15.7641 9.30703C15.3188 8.68359 15.4078 7.57031 15.9422 7.125C18.8367 4.76484 22.132 3.5625 25.7836 3.5625C29.3461 3.5625 32.5969 4.72031 35.4023 6.94688C36.0258 7.39219 36.1148 8.46094 35.6695 9.12891Z" fill="#444B54"/>
<path d="M24.0469 54.7734H22.2656C20.7961 54.7734 19.5938 53.5711 19.5938 52.1016C19.5938 50.632 20.7961 49.4297 22.2656 49.4297H24.0469C25.5164 49.4297 26.7188 50.632 26.7188 52.1016C26.7188 53.5711 25.5164 54.7734 24.0469 54.7734Z" fill="white"/>
<path d="M42.8594 47.6484C42.1023 47.6484 41.5234 48.2273 41.5234 48.9844C41.5234 49.9641 40.7219 50.7656 39.7422 50.7656H28.832C28.2977 49.207 26.7836 48.0938 25.0469 48.0938H23.2656C21.0391 48.0938 19.2578 49.875 19.2578 52.1016C19.2578 54.3281 21.0391 56.1094 23.2656 56.1094H25.0469C26.7836 56.1094 28.2531 54.9961 28.832 53.4375H39.7422C42.1914 53.4375 44.1953 51.4336 44.1953 48.9844C44.1953 48.2273 43.6164 47.6484 42.8594 47.6484ZM25.0469 53.4375H23.2656C22.5086 53.4375 21.9297 52.8586 21.9297 52.1016C21.9297 51.3445 22.5086 50.7656 23.2656 50.7656H25.0469C25.8039 50.7656 26.3828 51.3445 26.3828 52.1016C26.3828 52.8586 25.8039 53.4375 25.0469 53.4375Z" fill="#444B54"/>
<path d="M12.9141 43.6406C11.2219 43.6406 9.35156 41.2805 9.35156 37.8516C9.35156 34.4227 11.2219 32.0625 12.9141 32.0625C14.6062 32.0625 16.4766 34.4227 16.4766 37.8516C16.4766 41.2805 14.6062 43.6406 12.9141 43.6406Z" fill="white"/>
<path d="M12.9141 44.9766C10.2422 44.9766 8.01562 41.7258 8.01562 37.8516C8.01562 33.9773 10.2422 30.7266 12.9141 30.7266C15.5859 30.7266 17.8125 33.9773 17.8125 37.8516C17.8125 41.7258 15.5859 44.9766 12.9141 44.9766ZM12.9141 33.3984C12.1125 33.3984 10.6875 35.0906 10.6875 37.8516C10.6875 40.6125 12.1125 42.3047 12.9141 42.3047C13.7156 42.3047 15.1406 40.6125 15.1406 37.8516C15.1406 35.0906 13.7156 33.3984 12.9141 33.3984Z" fill="#444B54"/>
<path d="M12.9141 28.0547C10.9102 28.0547 9.08437 29.0789 7.70391 30.7711C5.21016 30.9937 3.11719 34.1555 3.11719 37.8516C3.11719 41.5477 5.21016 44.7094 7.70391 44.932C9.03984 46.5797 10.9102 47.6484 12.9141 47.6484C17.1 47.6484 20.4844 43.2398 20.4844 37.8516C20.4844 32.4633 17.1 28.0547 12.9141 28.0547ZM12.9141 42.3047C12.1125 42.3047 10.6875 40.6125 10.6875 37.8516C10.6875 35.0906 12.1125 33.3984 12.9141 33.3984C13.7156 33.3984 15.1406 35.0906 15.1406 37.8516C15.1406 40.6125 13.7156 42.3047 12.9141 42.3047Z" fill="#444B54"/>
<path d="M39.7422 46.3125C43.1853 46.3125 45.9766 42.5244 45.9766 37.8516C45.9766 33.1787 43.1853 29.3906 39.7422 29.3906C36.299 29.3906 33.5078 33.1787 33.5078 37.8516C33.5078 42.5244 36.299 46.3125 39.7422 46.3125Z" fill="#F58D2D"/>
<path d="M39.7422 47.6484C35.5563 47.6484 32.1719 43.2398 32.1719 37.8516C32.1719 32.4633 35.5563 28.0547 39.7422 28.0547C43.9281 28.0547 47.3125 32.4633 47.3125 37.8516C47.3125 43.2398 43.9281 47.6484 39.7422 47.6484ZM39.7422 30.7266C37.0703 30.7266 34.8438 33.9773 34.8438 37.8516C34.8438 41.7258 37.0703 44.9766 39.7422 44.9766C42.4141 44.9766 44.6406 41.7258 44.6406 37.8516C44.6406 33.9773 42.4141 30.7266 39.7422 30.7266Z" fill="#444B54"/>
<path d="M39.7422 47.6484C35.5563 47.6484 32.1719 43.2398 32.1719 37.8516C32.1719 32.4633 35.5563 28.0547 39.7422 28.0547C43.9281 28.0547 47.3125 32.4633 47.3125 37.8516C47.3125 43.2398 43.9281 47.6484 39.7422 47.6484ZM39.7422 30.7266C37.0703 30.7266 34.8438 33.9773 34.8438 37.8516C34.8438 41.7258 37.0703 44.9766 39.7422 44.9766C42.4141 44.9766 44.6406 41.7258 44.6406 37.8516C44.6406 33.9773 42.4141 30.7266 39.7422 30.7266Z" fill="#444B54"/>
<path d="M44.6406 30.7266C41.9688 30.7266 39.7422 33.9773 39.7422 37.8516C39.7422 41.7258 41.9688 44.9766 44.6406 44.9766C47.3125 44.9766 49.5391 41.7258 49.5391 37.8516C49.5391 33.9773 47.3125 30.7266 44.6406 30.7266Z" fill="#444B54"/>
</svg>
