<svg width="57" height="57" viewBox="0 0 57 57" fill="none" xmlns="http://www.w3.org/2000/svg">
<path d="M41.4141 55.2188H15.5859C13.1367 55.2188 11.1328 53.2148 11.1328 50.7656V6.23438C11.1328 3.78516 13.1367 1.78125 15.5859 1.78125H41.4141C43.8633 1.78125 45.8672 3.78516 45.8672 6.23438V50.7656C45.8672 53.2148 43.8633 55.2188 41.4141 55.2188Z" fill="white"/>
<path d="M15.5859 46.7578C15.3187 46.7578 15.1406 46.5797 15.1406 46.3125V6.23438C15.1406 5.96719 15.3187 5.78906 15.5859 5.78906H41.4141C41.6812 5.78906 41.8594 5.96719 41.8594 6.23438V46.3125C41.8594 46.5797 41.6812 46.7578 41.4141 46.7578H15.5859Z" fill="#F58D2D"/>
<path d="M41.4141 56.5547H15.5859C12.3797 56.5547 9.79688 53.9719 9.79688 50.7656V6.23438C9.79688 3.02813 12.3797 0.445312 15.5859 0.445312H41.4141C44.6203 0.445312 47.2031 3.02813 47.2031 6.23438V50.7656C47.2031 53.9719 44.6203 56.5547 41.4141 56.5547ZM15.5859 3.11719C13.8492 3.11719 12.4688 4.49766 12.4688 6.23438V50.7656C12.4688 52.5023 13.8492 53.8828 15.5859 53.8828H41.4141C43.1508 53.8828 44.5312 52.5023 44.5312 50.7656V6.23438C44.5312 4.49766 43.1508 3.11719 41.4141 3.11719H15.5859Z" fill="#444B54"/>
<path d="M28.5 52.5469C29.7297 52.5469 30.7266 51.55 30.7266 50.3203C30.7266 49.0906 29.7297 48.0938 28.5 48.0938C27.2703 48.0938 26.2734 49.0906 26.2734 50.3203C26.2734 51.55 27.2703 52.5469 28.5 52.5469Z" fill="#F58D2D"/>
<path d="M35.1797 17.3672H30.2812L28.5 18.2578L26.7188 17.3672H21.8203C21.0633 17.3672 20.4844 17.9461 20.4844 18.7031V32.0625C20.4844 32.8195 21.0633 33.3984 21.8203 33.3984H35.1797C35.9367 33.3984 36.5156 32.8195 36.5156 32.0625V18.7031C36.5156 17.9461 35.9367 17.3672 35.1797 17.3672Z" fill="white"/>
<path d="M30.2812 17.3672H26.7188V20.4844C26.7188 20.7516 26.8969 20.9297 27.1641 20.9297H29.8359C30.1031 20.9297 30.2812 20.7516 30.2812 20.4844V17.3672Z" fill="#F58D2D"/>
</svg>
