<svg width="23" height="24" viewBox="0 0 23 24" fill="none" xmlns="http://www.w3.org/2000/svg">
<g clip-path="url(#clip0)">
<path d="M11.4167 12.6684C11.4405 12.6684 11.4643 12.6684 11.4929 12.6684C11.5024 12.6684 11.5119 12.6684 11.5215 12.6684C11.5357 12.6684 11.5548 12.6684 11.5691 12.6684C12.9646 12.6446 14.0934 12.154 14.9269 11.2157C16.7606 9.14863 16.4558 5.60504 16.4225 5.26687C16.3034 2.72825 15.1031 1.51371 14.1125 0.946928C13.3742 0.52303 12.5121 0.294412 11.55 0.27536H11.5167C11.5119 0.27536 11.5024 0.27536 11.4976 0.27536H11.4691C10.9404 0.27536 9.90207 0.361092 8.90663 0.927876C7.90642 1.49466 6.68712 2.7092 6.56805 5.26687C6.53471 5.60504 6.22988 9.14863 8.06359 11.2157C8.89234 12.154 10.0211 12.6446 11.4167 12.6684ZM7.83974 5.38594C7.83974 5.37165 7.8445 5.35736 7.8445 5.34784C8.00168 1.93285 10.426 1.5661 11.4643 1.5661H11.4833C11.4929 1.5661 11.5072 1.5661 11.5215 1.5661C12.8074 1.59468 14.9936 2.1186 15.1412 5.34784C15.1412 5.36213 15.1413 5.37642 15.146 5.38594C15.1508 5.41928 15.4842 8.65805 13.9696 10.3632C13.3695 11.0395 12.5693 11.3729 11.5167 11.3824C11.5072 11.3824 11.5024 11.3824 11.4929 11.3824C11.4833 11.3824 11.4786 11.3824 11.4691 11.3824C10.4212 11.3729 9.6163 11.0395 9.02093 10.3632C7.5111 8.66757 7.83498 5.41452 7.83974 5.38594Z" fill="black"/>
<path d="M21.2806 18.5458C21.2806 18.541 21.2806 18.5363 21.2806 18.5315C21.2806 18.4934 21.2758 18.4553 21.2758 18.4124C21.2473 17.4694 21.1853 15.2642 19.1182 14.5593C19.104 14.5545 19.0849 14.5497 19.0706 14.545C16.9226 13.9972 15.1365 12.7589 15.1174 12.7446C14.8269 12.5398 14.4268 12.6112 14.222 12.9018C14.0172 13.1923 14.0886 13.5924 14.3792 13.7972C14.4601 13.8543 16.3558 15.1737 18.7277 15.7833C19.8374 16.1786 19.9613 17.3646 19.9946 18.4505C19.9946 18.4934 19.9946 18.5315 19.9994 18.5696C20.0041 18.9983 19.9756 19.6603 19.8994 20.0413C19.1278 20.4795 16.1033 21.9941 11.5024 21.9941C6.92048 21.9941 3.877 20.4748 3.10064 20.0366C3.02444 19.6555 2.9911 18.9935 3.00062 18.5648C3.00062 18.5267 3.00539 18.4886 3.00539 18.4458C3.03873 17.3598 3.16256 16.1739 4.27232 15.7786C6.64424 15.1689 8.53987 13.8448 8.62084 13.7924C8.91137 13.5876 8.98282 13.1875 8.77801 12.897C8.57321 12.6065 8.17312 12.535 7.88259 12.7398C7.86354 12.7541 6.08698 13.9925 3.92939 14.5402C3.91034 14.545 3.89605 14.5497 3.88176 14.5545C1.81466 15.2642 1.75275 17.4694 1.72417 18.4077C1.72417 18.4505 1.72417 18.4886 1.71941 18.5267C1.71941 18.5315 1.71941 18.5363 1.71941 18.541C1.71464 18.7887 1.70988 20.0604 1.96231 20.6986C2.00994 20.8225 2.09567 20.9272 2.20998 20.9987C2.35287 21.0939 5.77739 23.2753 11.5071 23.2753C17.2369 23.2753 20.6614 21.0892 20.8043 20.9987C20.9139 20.9272 21.0044 20.8225 21.052 20.6986C21.2901 20.0652 21.2854 18.7935 21.2806 18.5458Z" fill="black"/>
</g>
<defs>
<clipPath id="clip0">
<rect width="23" height="23" fill="white" transform="translate(0 0.27536)"/>
</clipPath>
</defs>
</svg>
