<svg width="24" height="23" viewBox="0 0 24 23" fill="none" xmlns="http://www.w3.org/2000/svg">
<g clip-path="url(#clip0)">
<path d="M16.3157 1.06903C15.2434 1.06903 14.2184 1.31487 13.2694 1.79977C12.6234 2.12978 12.03 2.56825 11.5208 3.08848C11.0116 2.56825 10.4182 2.12978 9.77217 1.79977C8.82314 1.31487 7.7982 1.06903 6.72578 1.06903C3.02866 1.06903 0.0207825 4.07691 0.0207825 7.77408C0.0207825 10.3927 1.40377 13.1739 4.13129 16.0405C6.40862 18.434 9.19679 20.4292 11.1347 21.6814L11.5208 21.9309L11.9069 21.6814C13.8448 20.4292 16.6329 18.434 18.9103 16.0405C21.6378 13.1739 23.0208 10.3927 23.0208 7.77408C23.0208 4.07691 20.0129 1.06903 16.3157 1.06903ZM17.8796 15.0598C15.8444 17.1989 13.3652 19.0173 11.5208 20.2344C9.67637 19.0173 7.19721 17.1989 5.16197 15.0598C2.69452 12.4666 1.44346 10.0154 1.44346 7.77408C1.44346 4.86138 3.81313 2.49171 6.72583 2.49171C8.40274 2.49171 9.94317 3.262 10.952 4.60501L11.5208 5.36211L12.0895 4.60501C13.0984 3.262 14.6388 2.49171 16.3157 2.49171C19.2284 2.49171 21.5981 4.86138 21.5981 7.77408C21.5981 10.0154 20.347 12.4666 17.8796 15.0598Z" fill="black"/>
</g>
<defs>
<clipPath id="clip0">
<rect width="23" height="23" fill="white" transform="translate(0.0207825)"/>
</clipPath>
</defs>
</svg>
