<svg width="24" height="24" viewBox="0 0 24 24" fill="none" xmlns="http://www.w3.org/2000/svg">
<g clip-path="url(#clip0)">
<path d="M23.1426 22.3073L17.5532 16.718C19.0525 14.9943 19.9603 12.7453 19.9603 10.2872C19.9603 4.87629 15.5592 0.480286 10.1534 0.480286C4.74257 0.480286 0.346558 4.88139 0.346558 10.2872C0.346558 15.6929 4.74767 20.094 10.1534 20.094C12.6115 20.094 14.8605 19.1863 16.5843 17.6869L22.1736 23.2763C22.3062 23.4089 22.4847 23.4803 22.6581 23.4803C22.8315 23.4803 23.01 23.414 23.1426 23.2763C23.4078 23.0111 23.4078 22.5725 23.1426 22.3073ZM1.7184 10.2872C1.7184 5.63616 5.50243 1.85723 10.1483 1.85723C14.7993 1.85723 18.5783 5.64126 18.5783 10.2872C18.5783 14.9331 14.7993 18.7222 10.1483 18.7222C5.50243 18.7222 1.7184 14.9382 1.7184 10.2872Z" fill="black"/>
</g>
<defs>
<clipPath id="clip0">
<rect width="23" height="23" fill="white" transform="translate(0.344635 0.480286)"/>
</clipPath>
</defs>
</svg>
