<svg width="24" height="24" viewBox="0 0 24 24" fill="none" xmlns="http://www.w3.org/2000/svg">
<g clip-path="url(#clip0)">
<path d="M23.146 9.58359H18.6925L15.4506 1.77264C15.2905 1.38696 14.848 1.20418 14.4624 1.36413C14.0767 1.52422 13.8938 1.96666 14.0539 2.35233L17.0552 9.58359H7.74923L10.7506 2.35233C10.9106 1.96666 10.7277 1.52417 10.342 1.36413C9.95652 1.20408 9.51388 1.38696 9.35383 1.77264L6.11191 9.58359H1.65832C1.24073 9.58359 0.902191 9.92213 0.902191 10.3397C0.902191 10.7573 1.24073 11.0958 1.65832 11.0958H2.113L3.59542 19.2032C3.91768 20.9655 5.45186 22.2445 7.24333 22.2445H17.5611C19.3527 22.2445 20.8868 20.9655 21.209 19.2032L22.6914 11.0958H23.1461C23.5637 11.0958 23.9022 10.7573 23.9022 10.3397C23.9022 9.92213 23.5636 9.58359 23.146 9.58359ZM19.7213 18.9311C19.5305 19.9748 18.622 20.7322 17.5611 20.7322H7.24328C6.18238 20.7322 5.27382 19.9748 5.08297 18.9311L3.65681 11.1316H21.1475L19.7213 18.9311Z" fill="black"/>
</g>
<defs>
<clipPath id="clip0">
<rect width="23" height="23" fill="white" transform="translate(0.902191 0.27536)"/>
</clipPath>
</defs>
</svg>
